PathFileType	4	(X/Y/Z)	C:/Users/beibeiliu/ov580/test_trc/User3\out5_training_dense_right.trc
DataRate	CameraRate	NumFrames	NumMarkers	Units	OrigDataRate	OrigDataStartFrame	OrigNumFrames
120	120	18	19	mm	120	126	500
Frame#	Time	ThumbCMC			ThumbMCP			ThumbIP			ThumbTip			IndexMCP			IndexPIP			IndexTip			MiddleMCP			MiddlePIP			MiddleTip			RingMCP			RingPIP			RingTip			PinkyMCP			PinkyPIP			PinkyTip			BackHand1			BackHand2			BackHand3	
		X0	Y0	Z0	X1	Y1	Z1	X2	Y2	Z2	X3	Y3	Z3	X4	Y4	Z4	X5	Y5	Z5	X6	Y6	Z6	X7	Y7	Z7	X8	Y8	Z8	X9	Y9	Z9	X10	Y10	Z10	X11	Y11	Z11	X12	Y12	Z12	X13	Y13	Z13	X14	Y14	Z14	X15	Y15	Z15	X16	Y16	Z16	X17	Y17	Z17	X18	Y18	Z18	
125	1.04167	139.796	56.7568	37.1587	142.573	79.6716	9.31911	131.884	76.5292	-18.3316	115.537	54.2199	-29.6312	143.155	68.2668	-37.7059	116.093	86.8817	-41.1821	103.246	80.6135	-8.49317	128.543	53.2942	-45.6712	98.8168	71.0713	-35.9502	100.232	51.9129	0.442033	114.179	41.3001	-39.5016	88.2441	46.5442	-21.5672	102.003	39.7715	4.52011	106.503	24.5846	-32.9089	86.6242	35.2893	-19.3115	96.4853	23.9832	6.91212	145.13	4.0502	-5.55094	139.069	-3.46823	26.4472	156.376	31.3035	21.5006	
126	1.05	129.536	54.4867	38.7356	131.79	75.6424	13.2446	126.348	70.3496	-18.7236	114.485	47.0868	-26.1827	142.147	68.8695	-32.5403	109.898	79.5443	-40.0797	94.9543	72.7832	-12.0894	129.063	52.2232	-44.3192	97.7418	61.678	-39.2493	93.2047	46.4048	-4.37243	115.073	34.6163	-40.5671	89.8382	40.6456	-26.9597	99.7021	29.146	4.41074	109.56	17.6753	-34.3811	85.7529	23.6081	-20.5158	96.1706	16.3533	6.68515	149.027	7.29802	0.808501	139.988	-7.05605	30.8882	154.679	31.2485	27.0708	
127	1.05833	121.212	50.8825	41.9449	123.652	68.2854	14.7377	120.803	65.758	-14.5101	115.611	40.1686	-26.8366	138.402	62.6829	-30.1026	107.903	75.8632	-38.9231	90.6662	66.0524	-11.0061	132.729	50.5735	-38.5024	98.1122	51.8348	-39.977	92.4174	37.6225	-3.57911	121.021	31.6569	-36.1234	89.7816	29.3987	-25.9237	97.5718	20.4988	2.89362	112.258	13.0129	-35.8206	89.6322	15.4141	-19.1647	97.2525	5.52875	7.27697	150.014	4.83116	4.934	138.957	-6.04362	39.1329	146.217	27.7389	34.6806	
128	1.06667	112.198	46.7764	46.0642	112.83	65.0192	19.5543	116.358	63.0716	-12.8341	116.936	38.5769	-31.9394	137.307	61.9012	-25.3448	109.956	63.9157	-39.4869	90.1343	52.0235	-14.8108	135.995	43.0193	-32.6442	100.279	44.6647	-39.3981	94.8591	27.2013	-2.7051	124.37	25.4254	-34.2489	93.7734	20.4491	-26.7168	99.8054	14.1605	5.74195	119.283	3.69288	-33.0984	95.9784	7.07595	-23.1631	99.5057	1.04139	4.56443	152.371	2.85403	10.4666	142.599	-11.8447	41.5647	142.123	25.0158	40.3737	
129	1.075	108.116	37.4644	41.4324	103.752	56.393	15.3476	102.97	67.2601	-13.2514	107.597	50.5326	-38.2602	138.115	53.7023	-23.2474	109.223	53.8572	-32.7866	99.5761	34.4674	-6.67891	138.226	37.0877	-31.0966	105.677	30.3132	-36.3491	100.295	18.5333	2.85407	132.281	15.5809	-28.5491	102.761	10.0155	-28.8333	101.841	2.87041	7.24607	131.187	-2.96345	-24.6257	101.398	-6.50746	-18.9892	104.263	-12.8586	8.72025	154.504	-2.45831	20.1286	138.955	-15.4534	49.6475	141.567	21.8816	45.8242	
130	1.08333	105.98	28.4919	44.4943	102.391	50.0536	14.3022	105.749	58.4091	-13.4398	111.014	47.9111	-37.152	142.543	46.0332	-15.7323	113.587	43.9482	-28.5457	106.407	23.2774	-2.72739	143.189	24.1063	-27.1286	111.277	19.7844	-30.4989	105.978	8.36699	4.01668	138.553	5.04856	-24.2605	108.06	0.337416	-23.6444	104.187	-4.71958	10.6816	135.851	-9.48873	-20.3297	110.472	-14.7863	-19.1647	105.612	-18.7447	12.9687	157.563	-6.45625	28.4135	140.846	-25.4479	53.0221	140.264	14.2356	49.0382	
131	1.09167	108.787	21.9848	43.699	104.29	39.3132	18.7872	110.768	53.3019	-11.985	119.324	46.0708	-34.5191	148.545	40.4279	-8.56769	122.735	34.9018	-28.5026	111.483	22.1737	1.35072	152.507	16.2314	-16.8781	119.06	10.5839	-27.1511	114.194	-2.49027	8.84042	147.782	-3.85216	-16.6693	116.776	-8.18102	-21.7071	109.962	-13.3621	12.6098	145.415	-19.5591	-15.2796	116.604	-21.3044	-12.6122	109.218	-26.7655	14.3053	158.394	-13.8151	36.6421	145.374	-27.8128	58.4903	142.669	8.87911	53.1204	
132	1.1	105.588	18.9572	48.2646	108.637	36.1058	20.4458	119.949	49.3671	-8.49034	130.994	40.7908	-29.2756	157.57	29.6446	-4.74036	133.949	25.1869	-26.7841	118.524	17.0821	6.5926	159.71	14.4134	-11.6436	128.087	3.59287	-25.4671	118.461	-6.4955	8.84178	155.015	-8.80859	-12.0709	126.918	-13.4061	-19.8052	114.128	-15.0215	13.5517	155.447	-26.8566	-7.18774	124.31	-25.8904	-8.79568	116.834	-27.8203	16.3833	164.229	-19.5812	44.5995	144.163	-34.9654	65.8823	140.904	4.99471	62.2882	
133	1.10833	108.179	17.7933	50.5602	118.292	32.7519	21.4649	126.494	43.8869	-1.43317	139.545	41.6186	-23.9287	162.46	34.0899	-1.7499	139.977	26.5452	-22.4708	126.382	11.9762	6.53806	166.178	9.22249	-8.60371	138.713	6.35104	-23.3119	124.157	-7.79356	11.8756	163.68	-10.9205	-5.62356	135.852	-18.577	-15.6733	120.61	-22.0845	14.4388	161.189	-28.7838	-4.44145	131.303	-30.4683	-5.76943	121.452	-28.5898	16.8435	166.927	-17.878	48.7223	148.354	-28.015	70.5377	142.386	6.87713	64.2126	
134	1.11667	113.605	16.208	53.9252	119.704	33.4309	27.7737	130.151	53.329	2.34988	146.696	50.3637	-19.3351	169.139	35.6877	5.30392	147.222	33.9468	-19.5065	129.836	19.3017	9.07428	171.305	18.2501	-2.75132	143.763	7.91525	-19.2838	130.335	-4.28873	18.9596	169.13	-2.96853	-1.15924	142.261	-11.5046	-12.8078	124.021	-12.2801	19.8247	169.37	-22.1661	3.83853	138.764	-22.2665	-2.45968	124.863	-24.5111	20.0068	169.587	-12.8415	57.1898	147.784	-28.6236	76.3416	146.109	5.89894	70.4414	
135	1.125	117.598	25.4703	57.1086	121.921	44.247	31.8633	133.946	61.7801	8.16693	150.246	57.6627	-11.9411	171.237	47.3228	12.6455	153.843	39.68	-14.8308	134.54	25.4402	9.80915	175.622	24.6432	-0.0158062	149.085	17.1293	-15.8873	131.958	5.09076	16.5491	171.954	5.58613	-0.16485	143.613	-2.50511	-8.56276	128.849	-7.86574	17.8885	171.752	-13.203	6.15571	142.354	-16.1223	-1.38838	127.684	-19.4417	22.6469	174.788	-6.88612	56.4375	152.72	-22.3782	80.2058	150.594	14.4328	70.7214	
136	1.13333	118.993	32.751	61.5465	128.706	50.0786	35.5685	138.449	66.9356	13.7224	154.206	66.5032	-7.32961	177.323	53.286	18.0097	155.978	56.5486	-9.17761	138.968	37.1267	16.6456	179.401	35.6421	5.36444	153.89	33.47	-12.655	136.336	15.9529	18.7043	178.024	13.9609	5.21191	151.092	9.24734	-7.87742	131.707	2.56464	21.0036	175.772	-1.62597	6.66479	146.752	-4.56213	-0.255622	131.961	-6.53063	24.3216	179.119	0.355346	59.2884	155.644	-19.2341	78.5902	155.403	20.5917	75.8054	
137	1.14167	122.855	45.258	64.2995	132.396	64.5565	38.275	142.953	84.1477	16.6535	155.517	76.8742	-3.986	180.515	69.1475	19.1311	158.212	70.0512	-2.79519	140.258	53.1218	20.587	182.719	50.0201	9.27951	152.493	47.7841	-7.87503	138.848	31.6868	23.4121	180.636	29.6014	4.12205	149.953	26.416	-5.9354	134.876	18.9724	23.5315	175.82	14.0431	5.47134	149.792	11.9839	-0.630135	136.522	1.19415	26.2396	181.733	6.05668	59.9945	159.544	-4.76151	80.0425	157.728	32.5874	78.0223	
138	1.15	127.501	58.5127	67.411	133.378	79.6073	43.0664	144.285	98.4591	20.1324	159.654	92.3419	-4.63762	183.576	83.4739	23.6949	158.138	85.3756	2.96904	144.552	65.4938	24.6925	186.371	67.2853	11.8256	156.165	64.2327	-3.11995	143.543	44.0329	22.4547	184.1	45.4343	9.86435	154.777	41.3146	-5.20715	138.226	34.6246	23.4594	179.524	30.0898	6.35789	152.849	30.1172	0.300166	138.483	17.8059	25.9066	185.412	22.339	60.7347	164.094	2.94751	77.015	159.564	39.9438	80.4225	
139	1.15833	130.153	67.0276	69.5119	137.237	90.9245	46.0146	144.267	112.564	24.4878	158.112	103.752	3.49888	181.868	103.732	31.3433	157.27	102.474	10.092	145.167	82.4635	29.3667	188.135	85.7262	17.6909	158.565	82.1614	0.187197	146.174	59.3519	25.5995	185.157	65.6545	13.7623	159.641	62.0448	-3.14708	141.988	47.799	25.5754	182.308	46.2494	6.11982	157.68	48.6429	-0.109753	141.723	34.4818	25.0574	186.626	36.8098	60.8861	166.257	15.2076	77.1628	163.211	51.0132	82.1911	
140	1.16667	131.751	80.3051	71.7161	130.683	107.757	51.0953	138.978	124.558	29.772	157.109	119.167	7.23274	179.254	118.681	38.8294	156.601	115.985	13.6176	144.006	95.814	35.9946	187.392	103.222	24.7788	158.01	101.862	4.00021	146.311	73.4434	27.1105	187.268	82.5674	12.6515	158.67	81.7667	-0.0753739	143.69	60.7574	25.623	186.419	64.2552	11.5941	160.726	67.1422	0.731717	143.871	50.7735	26.8386	187.269	47.2836	59.923	169.134	30.0757	74.0429	162.404	66.78	85.1592	
141	1.175	124.788	90.7342	75.0891	129.563	117.98	51.7183	135.932	140.547	31.9358	152.238	131.248	10.9364	173.055	137.128	40.4773	154.337	131.617	16.5753	144.196	106.533	35.6264	185.398	118.059	26.8734	156.801	119.202	7.52415	144.073	89.3079	28.3932	182.804	103.855	17.7399	157.624	94.8267	2.41842	141.556	78.4059	23.173	187.399	80.6702	11.8481	158.266	80.2199	4.00581	146.797	62.304	22.7439	188.289	68.4743	64.3003	171.537	40.1461	75.6301	163.604	76.1456	84.4376	
142	1.18333	124.444	102.201	74.3927	120.709	127.845	54.5472	129.384	149.612	33.1566	145.04	143.398	12.5896	169.079	147.308	43.2042	147.454	145.431	20.6187	137.615	118.219	37.4972	179.972	134.478	28.2634	157.021	130.159	7.42831	143.289	98.3542	32.4704	180.46	117.086	17.4522	156.983	112.008	3.88262	140.494	86.6883	27.1729	183.625	97.1203	13.7122	158.056	94.594	5.31349	144.246	70.694	23.5813	184.68	78.8137	66.2806	175.506	54.5265	75.2348	160.195	90.0963	88.9467	
